<?xml version="1.0" encoding="UTF-8" standalone="no"?>
<svg
   width="180"
   height="53"
   viewBox="0 0 47.625 14.023"
   version="1.1"
   id="svg20"
   sodipodi:docname="gplay_download.svg"
   inkscape:version="1.2.2 (b0a8486, 2022-12-01)"
   xmlns:inkscape="http://www.inkscape.org/namespaces/inkscape"
   xmlns:sodipodi="http://sodipodi.sourceforge.net/DTD/sodipodi-0.dtd"
   xmlns="http://www.w3.org/2000/svg"
   xmlns:svg="http://www.w3.org/2000/svg">
  <defs
     id="defs24" />
  <sodipodi:namedview
     id="namedview22"
     pagecolor="#ffffff"
     bordercolor="#000000"
     borderopacity="0.25"
     inkscape:showpageshadow="2"
     inkscape:pageopacity="0.0"
     inkscape:pagecheckerboard="0"
     inkscape:deskcolor="#d1d1d1"
     showgrid="false"
     inkscape:zoom="2.573083"
     inkscape:cx="126.89058"
     inkscape:cy="-18.071706"
     inkscape:window-width="1920"
     inkscape:window-height="1011"
     inkscape:window-x="0"
     inkscape:window-y="0"
     inkscape:window-maximized="1"
     inkscape:current-layer="svg20" />
  <rect
     width="46.952"
     height="13.35"
     x=".336"
     y=".336"
     rx="1.69"
     fill="#060516"
     stroke="#304ffe"
     stroke-width=".529"
     id="rect2" />
  <g
     id="g822"
     transform="translate(2.984276)">
    <path
       d="m 6.669,6.822 -3.551,3.72 c 0.081,0.286 0.289,0.519 0.565,0.631 0.276,0.112 0.588,0.09 0.845,-0.06 L 8.523,8.838 Z"
       fill="#ea4335"
       id="path4" />
    <path
       d="M 10.259,6.19 8.531,5.2 6.587,6.907 8.54,8.833 10.254,7.854 a 0.94,0.94 0 0 0 0,-1.664 z"
       fill="#fbbc04"
       id="path6" />
    <path
       d="M 3.118,3.483 C 3.097,3.562 3.086,3.644 3.086,3.726 v 6.572 a 0.97,0.97 0 0 0 0.032,0.243 L 6.79,6.917 Z"
       fill="#4285f4"
       id="path8" />
    <path
       d="M 6.695,7.013 8.531,5.2 4.541,2.914 C 4.391,2.826 4.22,2.78 4.046,2.779 3.614,2.778 3.235,3.065 3.117,3.48 Z"
       fill="#34a853"
       id="path10" />
    <g
       id="g811"
       transform="translate(0,-0.74906465)">
      <text
         xml:space="preserve"
         x="13.965802"
         y="6.952827"
         font-size="2.3385px"
         font-family="'DejaVu Sans Mono'"
         fill="#060516"
         stroke="#304ffe"
         id="text14"
         style="stroke-width:0.828667"><tspan
           x="13.965802"
           y="5.824182"
           font-weight="normal"
           font-family="Roboto"
           fill="#ffffff"
           stroke="none"
           id="tspan12"
           style="stroke-width:0.686689">GET IT ON</tspan></text>
      <text
         xml:space="preserve"
         x="13.892879"
         y="11.512982"
         font-size="4.677px"
         font-family="'DejaVu Sans Mono'"
         fill="#060516"
         stroke="#304ffe"
         id="text18"
         style="stroke-width:0.828667"><tspan
           x="13.892879"
           y="10.384338"
           font-weight="normal"
           font-family="Roboto"
           fill="#ffffff"
           stroke="none"
           id="tspan16"
           style="stroke-width:0.686689">Google Play</tspan></text>
    </g>
  </g>
</svg>
