<?xml version="1.0" encoding="UTF-8" standalone="no"?>
<!-- Created with Inkscape (http://www.inkscape.org/) -->

<svg
   width="512"
   height="512"
   viewBox="0 0 135.46666 135.46667"
   version="1.1"
   id="svg154626"
   inkscape:version="1.2.2 (b0a8486, 2022-12-01)"
   sodipodi:docname="logo_2.svg"
   xml:space="preserve"
   inkscape:export-filename="logo..svg"
   inkscape:export-xdpi="96"
   inkscape:export-ydpi="96"
   xmlns:inkscape="http://www.inkscape.org/namespaces/inkscape"
   xmlns:sodipodi="http://sodipodi.sourceforge.net/DTD/sodipodi-0.dtd"
   xmlns="http://www.w3.org/2000/svg"
   xmlns:svg="http://www.w3.org/2000/svg"><sodipodi:namedview
     id="namedview154628"
     pagecolor="#ffffff"
     bordercolor="#000000"
     borderopacity="0.25"
     inkscape:showpageshadow="2"
     inkscape:pageopacity="0.0"
     inkscape:pagecheckerboard="0"
     inkscape:deskcolor="#d1d1d1"
     inkscape:document-units="mm"
     showgrid="false"
     showguides="false"
     inkscape:zoom="0.70710678"
     inkscape:cx="-146.3711"
     inkscape:cy="210.01071"
     inkscape:window-width="1920"
     inkscape:window-height="1011"
     inkscape:window-x="0"
     inkscape:window-y="0"
     inkscape:window-maximized="1"
     inkscape:current-layer="layer1" /><defs
     id="defs154623"><inkscape:path-effect
       effect="fillet_chamfer"
       id="path-effect888"
       is_visible="true"
       lpeversion="1"
       nodesatellites_param="F,0,0,1,0,2.9029612,0,1 @ F,0,0,1,0,2.8547432,0,1 @ F,0,0,1,0,0,0,1 @ F,0,0,1,0,0,0,1"
       unit="px"
       method="auto"
       mode="F"
       radius="0"
       chamfer_steps="1"
       flexible="false"
       use_knot_distance="true"
       apply_no_radius="true"
       apply_with_radius="true"
       only_selected="false"
       hide_knots="false" /><inkscape:path-effect
       effect="fillet_chamfer"
       id="path-effect886"
       is_visible="true"
       lpeversion="1"
       nodesatellites_param="F,0,0,1,0,0,0,1 @ F,0,0,1,0,0,0,1 @ F,0,0,1,0,2.7717626,0,1 @ F,0,0,1,0,2.7981249,0,1"
       unit="px"
       method="auto"
       mode="F"
       radius="0"
       chamfer_steps="1"
       flexible="false"
       use_knot_distance="true"
       apply_no_radius="true"
       apply_with_radius="true"
       only_selected="false"
       hide_knots="false" /><inkscape:path-effect
       effect="fillet_chamfer"
       id="path-effect857"
       is_visible="true"
       lpeversion="1"
       nodesatellites_param="F,0,0,1,0,2.8463143,0,1 @ F,0,0,1,0,2.7445942,0,1 @ F,0,0,1,0,0,0,1 @ F,0,0,1,0,0,0,1"
       unit="px"
       method="auto"
       mode="F"
       radius="0"
       chamfer_steps="1"
       flexible="false"
       use_knot_distance="true"
       apply_no_radius="true"
       apply_with_radius="true"
       only_selected="false"
       hide_knots="false" /><inkscape:path-effect
       effect="fillet_chamfer"
       id="path-effect301"
       is_visible="true"
       lpeversion="1"
       nodesatellites_param="F,0,0,1,0,0,0,1 @ F,0,0,1,0,0,0,1 @ F,0,0,1,0,2.8414023,0,1 @ F,0,0,1,0,2.7570778,0,1"
       unit="px"
       method="auto"
       mode="F"
       radius="0"
       chamfer_steps="1"
       flexible="false"
       use_knot_distance="true"
       apply_no_radius="true"
       apply_with_radius="true"
       only_selected="false"
       hide_knots="false" /><clipPath
       id="bounds_0"><rect
         x="0"
         y="0"
         width="332"
         height="300"
         id="rect183060" /></clipPath><clipPath
       id="bounds_0-5"><rect
         x="0"
         y="0"
         width="332"
         height="300"
         id="rect186079" /></clipPath><clipPath
       id="bounds_0-3"><rect
         x="0"
         y="0"
         width="332"
         height="300"
         id="rect187323" /></clipPath></defs><g
     inkscape:label="Layer 1"
     inkscape:groupmode="layer"
     id="layer1"><rect
       style="display:inline;fill:#060516;fill-opacity:1;stroke-width:0.073103"
       id="rect155110"
       width="135.46666"
       height="135.46666"
       x="0"
       y="0"
       inkscape:label="bg" /><g
       id="g159373"
       inkscape:label="gamepad"
       transform="matrix(0.7663344,0,0,0.7663344,12.158139,15.82695)"><g
         id="g920-6-0"
         inkscape:label="rounded_buttons"
         style="display:inline;fill:#2df573;fill-opacity:1;stroke:none;stroke-width:11.3121;stroke-dasharray:none;stroke-opacity:1"
         transform="matrix(0.09019047,0,0,0.09019047,33.657837,118.24)"
         inkscape:transform-center-x="7.9020351"
         inkscape:transform-center-y="-2.8214598e-06"><path
           d="m 700,-520 q 17,0 28.5,-11.5 Q 740,-543 740,-560 740,-577 728.5,-588.5 717,-600 700,-600 q -17,0 -28.5,11.5 -11.5,11.5 -11.5,28.5 0,17 11.5,28.5 11.5,11.5 28.5,11.5 z"
           id="path910-2-6"
           style="fill:#304ffe;fill-opacity:1;stroke:none;stroke-width:11.3121;stroke-dasharray:none;stroke-opacity:1" /><path
           d="m 620,-440 q 17,0 28.5,-11.5 Q 660,-463 660,-480 660,-497 648.5,-508.5 637,-520 620,-520 q -17,0 -28.5,11.5 -11.5,11.5 -11.5,28.5 0,17 11.5,28.5 11.5,11.5 28.5,11.5 z"
           id="path908-9-2"
           style="fill:#304ffe;fill-opacity:1;stroke:none;stroke-width:11.3121;stroke-dasharray:none;stroke-opacity:1" /><path
           d="m 620,-600 q 17,0 28.5,-11.5 Q 660,-623 660,-640 660,-657 648.5,-668.5 637,-680 620,-680 q -17,0 -28.5,11.5 -11.5,11.5 -11.5,28.5 0,17 11.5,28.5 11.5,11.5 28.5,11.5 z"
           id="path906-1-6"
           style="fill:#304ffe;fill-opacity:1;stroke:none;stroke-width:11.3121;stroke-dasharray:none;stroke-opacity:1" /><path
           d="m 540,-520 q 17,0 28.5,-11.5 Q 580,-543 580,-560 580,-577 568.5,-588.5 557,-600 540,-600 q -17,0 -28.5,11.5 -11.5,11.5 -11.5,28.5 0,17 11.5,28.5 11.5,11.5 28.5,11.5 z"
           id="path904-2-1"
           style="fill:#304ffe;fill-opacity:1;stroke:none;stroke-width:11.3121;stroke-dasharray:none;stroke-opacity:1" /></g><path
         d="m 52.301756,78.674638 h 6.564782 v -7.658914 h 7.658913 v -6.564783 h -7.658913 v -7.658912 h -6.564782 v 7.658912 h -7.658914 v 6.564783 h 7.658914 z"
         id="path31568"
         style="display:inline;fill:#304ffe;fill-opacity:1;stroke-width:0.109413"
         inkscape:label="dpad" /></g><g
       id="g161766"
       transform="translate(0.02707633,-0.07335367)"
       inkscape:label="wires"><g
         id="g159381"
         inkscape:label="left"
         transform="matrix(0.7663344,0,0,0.7663344,20.493694,15.790004)"
         style="display:inline"><path
           style="display:inline;fill:#304ffe;fill-opacity:1;stroke-width:0.0869319"
           id="rect159375"
           width="5.5981536"
           height="117.17911"
           x="15.322474"
           y="39.249298"
           rx="0"
           ry="0"
           inkscape:path-effect="#path-effect857"
           d="m 18.168788,39.249298 h 0.0072 a 2.7445942,2.7445942 45 0 1 2.744594,2.744594 V 156.42841 H 15.322474 V 42.095612 a 2.8463143,2.8463143 135 0 1 2.846314,-2.846314 z"
           sodipodi:type="rect" /><path
           style="display:inline;fill:#304ffe;fill-opacity:1;stroke-width:0.0522608"
           id="rect159377"
           width="5.5981536"
           height="42.349003"
           x="39.24918"
           y="-57.671555"
           rx="0"
           ry="0"
           transform="rotate(90)"
           inkscape:path-effect="#path-effect301"
           d="m 39.24918,-57.671555 h 5.598153 v 39.507601 a 2.8414023,2.8414023 135 0 1 -2.841402,2.841402 2.7569146,2.7569146 45.003393 0 1 -2.756751,-2.757078 z"
           sodipodi:type="rect" /></g><g
         id="g161742"
         inkscape:label="right"
         transform="matrix(-0.7663344,0,0,-0.7663344,114.91882,119.82337)"><path
           style="display:inline;fill:#304ffe;fill-opacity:1;stroke-width:0.0869319"
           id="rect161738"
           width="5.5981536"
           height="117.17911"
           x="15.322474"
           y="39.249298"
           rx="0"
           ry="0"
           inkscape:path-effect="#path-effect888"
           d="m 18.225435,39.249298 a 2.7761143,2.7761143 46.646699 0 1 2.695192,2.854743 l 0,114.324369 H 15.322474 V 42.152259 a 2.9029612,2.9029612 135 0 1 2.902961,-2.902961 z"
           sodipodi:type="rect" /><path
           style="display:inline;fill:#304ffe;fill-opacity:1;stroke-width:0.0522608"
           id="rect161740"
           width="5.5981536"
           height="42.349003"
           x="39.24918"
           y="-57.671478"
           rx="0"
           ry="0"
           transform="rotate(90)"
           inkscape:path-effect="#path-effect886"
           d="m 39.24918,-57.671478 h 5.598153 v 39.57724 a 2.7717626,2.7717626 135 0 1 -2.771762,2.771763 h -0.02827 A 2.7981249,2.7981249 45 0 1 39.24918,-18.1206 Z"
           sodipodi:type="rect" /></g></g></g></svg>
